<svg width="32" height="32" viewBox="0 0 32 32" fill="none" xmlns="http://www.w3.org/2000/svg">
    <path d="M27.4999 8.82052L16.2157 3.38234C16.0789 3.31689 15.9207 3.31689 15.784 3.38234L4.54553 8.799L15.9999 14.3632L27.4999 8.82052Z" fill="#62A8DD"/>
    <path d="M23.5742 6.92908L12.0829 12.4603L16.0008 14.3634L27.4998 8.82109L23.5742 6.92908Z" fill="#1969A7"/>
    <path d="M19.7499 5.08172L16.2157 3.38234C16.0789 3.31689 15.9207 3.31689 15.784 3.38234L4.54553 8.799L8.24988 10.5992L19.7499 5.08172Z" fill="#1969A7"/>
    <path d="M11.5231 13.3072L9.02313 12.0928L4 9.65283V21.4728C4 21.6669 4.11035 21.8436 4.28418 21.9275L15.5 27.3332V15.239L11.5231 13.3072Z" fill="#62A8DD"/>
    <path d="M11.5 18.4496L8 15.6783V11.5968L4 9.65283V21.4728C4 21.6669 4.11035 21.8436 4.28418 21.9275L15.5 27.3332V15.239L11.5231 13.3072L11.5 18.4496Z" fill="#1969A7"/>
    <path d="M16.5 15.2401V27.3333L27.7158 21.9276C27.8896 21.8437 28 21.6671 28 21.4729V9.69739L16.5 15.2401Z" fill="#1969A7"/>
</svg>
