<svg width="32" height="32" viewBox="0 0 32 32" fill="none" xmlns="http://www.w3.org/2000/svg">
    <path d="M6.40227 14.8496V14.848V12.0782C6.40227 10.9237 6.39827 9.7691 6.39026 8.61454L6.39006 8.586L6.38866 8.57697L6.40041 8.57177C9.52743 7.1891 12.652 5.80083 15.7743 4.40695L15.783 4.40305L15.7915 4.39873C15.8081 4.39033 15.8264 4.38595 15.8449 4.38595C15.8635 4.38595 15.8818 4.39033 15.8984 4.39873L15.9066 4.40293L15.9151 4.40673C19.0472 5.81032 22.1801 7.20351 25.3137 8.58629L25.3236 8.59065C25.3236 10.7286 25.3236 12.8629 25.3116 14.9995L25.3116 14.9996C25.3081 15.6801 25.2536 16.3593 25.1484 17.0316C24.8067 19.1702 23.9509 21.1938 22.6546 22.9287L22.6538 22.9298C20.9939 25.1671 18.8815 26.7552 16.209 27.5592L16.209 27.5592L16.2032 27.561C15.981 27.6317 15.7425 27.6317 15.5203 27.561L15.5203 27.561L15.5143 27.5592C13.0464 26.8182 10.8785 25.311 9.32436 23.2558L9.32445 23.2557L9.31841 23.2481C7.4183 20.8624 6.38953 17.8995 6.40227 14.8496ZM24.2786 16.9634L24.2787 16.9627L24.0391 15.1672L24.425 15.1709C24.425 15.1707 24.425 15.1705 24.425 15.1703C24.4362 13.9856 24.4325 12.7977 24.4287 11.6131C24.4269 11.0287 24.4251 10.445 24.425 9.86292C24.437 9.71687 24.3998 9.57066 24.3189 9.44779C24.2384 9.32559 24.1197 9.23401 23.9817 9.18708C21.3859 8.03903 18.7941 6.88702 16.2063 5.73102C16.0964 5.67733 15.9757 5.64938 15.8533 5.64938C15.731 5.64938 15.6103 5.67731 15.5005 5.73099C12.9163 6.88432 10.3368 8.03208 7.7621 9.17428C7.61669 9.22627 7.4928 9.32592 7.41086 9.4574C7.33051 9.58633 7.29541 9.73798 7.31047 9.88849V9.89342V9.89904V9.90467V9.91029V9.91592V9.92154V9.92717V9.9328V9.93842V9.94405V9.94967V9.9553V9.96092V9.96655V9.97217V9.9778V9.98342V9.98905V9.99467V10.0003V10.0059V10.0116V10.0172V10.0228V10.0284V10.0341V10.0397V10.0453V10.0509V10.0566V10.0622V10.0678V10.0734V10.0791V10.0847V10.0903V10.0959V10.1016V10.1072V10.1128V10.1184V10.1241V10.1297V10.1353V10.1409V10.1466V10.1522V10.1578V10.1634V10.1691V10.1747V10.1803V10.1859V10.1916V10.1972V10.2028V10.2084V10.2141V10.2197V10.2253V10.2309V10.2366V10.2422V10.2478V10.2534V10.2591V10.2647V10.2703V10.2759V10.2816V10.2872V10.2928V10.2984V10.3041V10.3097V10.3153V10.3209V10.3266V10.3322V10.3378V10.3434V10.3491V10.3547V10.3603V10.3659V10.3716V10.3772V10.3828V10.3884V10.3941V10.3997V10.4053V10.411V10.4166V10.4222V10.4278V10.4335V10.4391V10.4447V10.4503V10.456V10.4616V10.4672V10.4728V10.4785V10.4841V10.4897V10.4953V10.501V10.5066V10.5122V10.5178V10.5235V10.5291V10.5347V10.5403V10.546V10.5516V10.5572V10.5628V10.5685V10.5741V10.5797V10.5853V10.591V10.5966V10.6022V10.6078V10.6135V10.6191V10.6247V10.6303V10.636V10.6416V10.6472V10.6528V10.6585V10.6641V10.6697V10.6753V10.681V10.6866V10.6922V10.6978V10.7035V10.7091V10.7147V10.7203V10.726V10.7316V10.7372V10.7428V10.7485V10.7541V10.7597V10.7653V10.771V10.7766V10.7822V10.7878V10.7935V10.7991V10.8047V10.8104V10.816V10.8216V10.8272V10.8329V10.8385V10.8441V10.8497V10.8554V10.861V10.8666V10.8722V10.8779V10.8835V10.8891V10.8947V10.9004V10.906V10.9116V10.9172V10.9229V10.9285V10.9341V10.9397V10.9454V10.951V10.9566V10.9622V10.9679V10.9735V10.9791V10.9847V10.9904V10.996V11.0016V11.0072V11.0129V11.0185V11.0241V11.0297V11.0354V11.041V11.0466V11.0522V11.0579V11.0635V11.0691V11.0747V11.0804V11.086V11.0916V11.0972V11.1029V11.1085V11.1141V11.1197V11.1254V11.131V11.1366V11.1422V11.1479V11.1535V11.1591V11.1647V11.1704V11.176V11.1816V11.1873V11.1929V11.1985V11.2041V11.2098V11.2154V11.221V11.2266V11.2323V11.2379V11.2435V11.2491V11.2548V11.2604V11.266V11.2716V11.2773V11.2829V11.2885V11.2941V11.2998V11.3054V11.311V11.3166V11.3223V11.3279V11.3335V11.3391V11.3448V11.3504V11.356V11.3616V11.3673V11.3729V11.3785V11.3841V11.3898V11.3954V11.401V11.4066V11.4123V11.4179V11.4235V11.4291V11.4348V11.4404V11.446V11.4516V11.4573V11.4629V11.4685V11.4741V11.4798V11.4854V11.491V11.4966V11.5023V11.5079V11.5135V11.5191V11.5248V11.5304V11.536V11.5416V11.5473V11.5529V11.5585V11.5641V11.5698V11.5754V11.581V11.5867V11.5923V11.5979V11.6035V11.6092V11.6148V11.6204V11.626V11.6317V11.6373V11.6429V11.6485V11.6542V11.6598V11.6654V11.671V11.6767V11.6823V11.6879V11.6935V11.6992V11.7048V11.7104V11.716V11.7217V11.7273V11.7329V11.7385V11.7442V11.7498V11.7554V11.761V11.7667V11.7723V11.7779V11.7835V11.7892V11.7948V11.8004V11.806V11.8117V11.8173V11.8229V11.8285V11.8342V11.8398V11.8454V11.851V11.8567V11.8623V11.8679V11.8735V11.8792V11.8848V11.8904V11.896V11.9017V11.9073V11.9129V11.9185V11.9242V11.9298V11.9354V11.941V11.9467V11.9523V11.9579V11.9635V11.9692V11.9748V11.9804V11.9861V11.9917V11.9973V12.0029V12.0086V12.0142V12.0198V12.0254V12.0311V12.0367V12.0423V12.0479V12.0536V12.0592V12.0648V12.0704V12.0761V12.0817V12.0873V12.0929V12.0986V12.1042V12.1098V12.1154V12.1211V12.1267V12.1323V12.1379V12.1436V12.1492V12.1548V12.1604V12.1661V12.1717V12.1773V12.1829V12.1886V12.1942V12.1998V12.2054V12.2111V12.2167V12.2223V12.2279V12.2336V12.2392V12.2448V12.2504V12.2561V12.2617V12.2673V12.2729V12.2786V12.2842V12.2898V12.2954V12.3011V12.3067V12.3123V12.3179V12.3236V12.3292V12.3348V12.3404V12.3461V12.3517V12.3573V12.3595H7.29847V12.7455V15.0392C7.28667 17.7302 8.19329 20.3447 9.86845 22.4507C11.2504 24.2765 13.1777 25.6149 15.3713 26.272C15.693 26.3735 16.0383 26.3735 16.36 26.2718C18.6664 25.5734 20.6768 24.1313 22.0778 22.1705C23.2219 20.6385 23.9771 18.8516 24.2786 16.9634Z" fill="#1969A7" stroke="#1969A7" stroke-width="0.771906"/>
    <path fill-rule="evenodd" clip-rule="evenodd" d="M15.8722 7.07505V7.06458C15.8563 7.06462 15.8405 7.06551 15.8247 7.06724C15.8089 7.06551 15.7931 7.06462 15.7772 7.06458V7.07505C15.7477 7.08155 15.7189 7.09102 15.6911 7.10338L8.70611 10.2078C8.65028 10.2275 8.60287 10.2657 8.5718 10.3161C8.54073 10.3664 8.52787 10.4259 8.53536 10.4847V15.1413C8.53536 15.3664 8.54313 15.5915 8.56123 15.814C8.57954 16.0845 8.61149 16.3539 8.65696 16.6211C8.92025 18.2587 9.5772 19.8079 10.5714 21.1355C11.782 22.8306 13.5193 24.0776 15.5126 24.6824C15.6039 24.7098 15.6978 24.727 15.7927 24.7337V24.7367C15.8034 24.7365 15.814 24.7361 15.8247 24.7356C15.8354 24.7361 15.846 24.7365 15.8567 24.7367V24.7337C15.9516 24.727 16.0455 24.7098 16.1368 24.6824C18.1301 24.0776 19.8674 22.8306 21.078 21.1355C22.0722 19.8079 22.7292 18.2587 22.9924 16.6211C23.0379 16.3539 23.0699 16.0845 23.0882 15.814C23.1063 15.5915 23.114 15.3664 23.114 15.1413V10.4847C23.1215 10.4259 23.1087 10.3664 23.0776 10.3161C23.0465 10.2657 22.9991 10.2275 22.9433 10.2078L15.9583 7.10338C15.9305 7.09102 15.9017 7.08155 15.8722 7.07505Z" fill="#62A8DD"/>
</svg>
