
<svg width="140" height="44" viewBox="0 0 140 44" fill="none" xmlns="http://www.w3.org/2000/svg">
    <g id="Logo-Rome">
        <g id="Group 6">
            <g id="Group 43">
                <path id="Combined Shape" fill-rule="evenodd" clip-rule="evenodd" d="M18.5038 11.6137H21.9264H22.0039H25.4265C26.1169 11.6133 26.7974 11.4482 27.4118 11.132L33.5541 7.85517C33.811 7.72271 34.068 7.56742 34.217 7.31907C34.3659 7.07071 34.4309 6.85283 34.4273 6.56297C34.4239 6.28387 34.3758 6.20808 34.2337 5.98447C34.2283 5.9759 34.2227 5.96711 34.217 5.95808C34.062 5.71353 33.5392 5.43305 33.2791 5.307L22.6234 0.158348C22.4309 0.0641752 22.2214 0.0108773 22.0081 0.00149843C22.0065 0.000549927 22.0049 6.62961e-05 22.0034 5.35408e-05C21.9906 -5.22641e-05 21.9779 -1.18169e-06 21.9651 0.000206147C21.9524 -1.18122e-06 21.9397 -5.2264e-05 21.9269 5.35408e-05C21.9254 6.62961e-05 21.9238 0.000549927 21.9222 0.00149843C21.7089 0.0108773 21.4994 0.0641752 21.3069 0.158348L10.6512 5.307C10.3911 5.43305 9.86831 5.71353 9.7133 5.95808C9.70757 5.96711 9.70199 5.9759 9.69655 5.98448C9.55453 6.20808 9.50639 6.28387 9.50295 6.56297C9.49937 6.85283 9.56441 7.07071 9.7133 7.31907C9.86226 7.56742 10.1193 7.72271 10.3762 7.85517L16.5185 11.132C17.1329 11.4482 17.8134 11.6133 18.5038 11.6137Z" fill="#62A8DD"/>
                <path id="Path Copy 34" d="M35.483 7.36364L27.4387 11.73C27.2851 11.8066 27.156 11.9235 27.0659 12.0678C26.9757 12.2121 26.928 12.3782 26.928 12.5475C26.928 12.7169 26.9757 12.883 27.0659 13.0273C27.156 13.1716 28.1268 15.3386 28.3655 15.4558C28.6041 15.5729 28.8671 15.6339 29.1337 15.6339C29.4004 15.6339 29.6635 15.5729 29.9021 15.4558L40.3764 10.0875C40.5101 10.0217 40.6227 9.92086 40.7017 9.79603C40.7807 9.67127 40.823 9.52736 40.8241 9.38031C40.825 9.23333 40.7847 9.08888 40.7074 8.96302C40.6301 8.83717 40.5188 8.73482 40.386 8.66736L37.3404 7.37127C37.0537 7.22512 36.7356 7.14825 36.4126 7.14689C36.0896 7.1456 35.771 7.21987 35.483 7.36364Z" fill="#62A8DD"/>
                <path id="Path Copy 37" d="M8.44748 7.36364L16.4917 11.73C16.6454 11.8066 16.7744 11.9235 16.8646 12.0678C16.9547 12.2121 17.0024 12.3782 17.0024 12.5475C17.0024 12.7169 16.9547 12.883 16.8646 13.0273C16.7744 13.1716 15.8994 15.1872 15.565 15.4558C15.2305 15.7243 15.0634 15.6339 14.7967 15.6339C14.53 15.6339 14.267 15.5729 14.0283 15.4558L3.55402 10.0875C3.42034 10.0217 3.30778 9.92086 3.22875 9.79603C3.14972 9.67126 3.1074 9.52735 3.10636 9.38031C3.10539 9.23333 3.14577 9.08887 3.22307 8.96302C3.30037 8.83717 3.41161 8.73482 3.54439 8.66736L6.59 7.37127C6.87675 7.22511 7.19482 7.14825 7.5178 7.14689C7.84079 7.14559 8.15941 7.21987 8.44748 7.36364Z" fill="#62A8DD"/>
            </g>
            <path id="Path Copy 23" d="M1.693 11.7247L14.6805 18.1809C14.8761 18.279 15.0432 18.4253 15.1658 18.6058C15.2885 18.7864 15.3624 18.9953 15.3809 19.2125C15.3993 19.4297 15.3615 19.6479 15.271 19.8463C15.1805 20.0449 15.0405 20.2169 14.8641 20.3462L13.2471 21.7177C12.9911 21.9086 12.6868 22.025 12.3683 22.0538C12.0497 22.0827 11.7293 22.023 11.4429 21.8813L0.781296 16.7691C0.614196 16.6859 0.473416 16.5584 0.374717 16.4005C0.275941 16.2425 0.223072 16.0605 0.221924 15.8745V12.6193C0.221847 12.447 0.266224 12.2776 0.350922 12.1274C0.435543 11.9771 0.557578 11.851 0.705244 11.7612C0.852911 11.6714 1.02131 11.6208 1.1943 11.6144C1.36729 11.608 1.53899 11.646 1.693 11.7247Z" fill="#1969A7"/>
            <path id="Path Copy 22" d="M1.75465 18.0478L10.1935 22.1869C10.573 22.3732 10.8709 22.6937 11.0304 23.0872L13.23 28.4697C13.3155 28.6784 13.3597 28.902 13.3599 29.1277V34.5831C13.3596 34.861 13.2928 35.1348 13.1654 35.3815C13.0379 35.628 12.8534 35.8401 12.6274 35.9999L9.25656 38.3707C9.00291 38.5505 8.70554 38.6576 8.39611 38.6806C8.08675 38.7036 7.77694 38.6417 7.49978 38.5014L0.951877 35.2004C0.665642 35.0568 0.424964 34.8357 0.25678 34.5619C0.0886716 34.2881 -0.000304452 33.9725 7.82705e-07 33.6506V19.1516C0.000611253 18.9436 0.0536459 18.7391 0.154068 18.5573C0.254567 18.3754 0.399172 18.2222 0.574453 18.1119C0.749735 18.0017 0.949969 17.9379 1.15631 17.9267C1.36272 17.9155 1.5686 17.9571 1.75465 18.0478Z" fill="#1969A7"/>
            <path id="Path Copy 21" d="M12.7103 22.8751L16.232 20.0426C16.481 19.8384 16.7821 19.7086 17.1011 19.6678C17.42 19.6271 17.7439 19.677 18.036 19.812L19.3953 20.4397C19.6942 20.5774 19.9475 20.7982 20.1251 21.076C20.3027 21.3538 20.3971 21.6769 20.3973 22.0069V28.7775C20.3974 29.0766 20.3199 29.3706 20.1726 29.6306C20.0253 29.8906 19.8131 30.1077 19.557 30.2606C19.3008 30.4136 19.0094 30.497 18.7115 30.5027C18.4135 30.5084 18.1191 30.4363 17.8573 30.2934L14.4942 28.4629C14.1227 28.2603 13.8388 27.9273 13.6965 27.5276L12.3392 24.3102C12.22 23.9746 12.0464 23.8513 12.1416 23.508C12.2368 23.1648 12.4355 23.1005 12.7103 22.8751Z" fill="#1969A7"/>
            <path id="Path Copy 20" d="M15.2871 29.6322L19.968 32.1688C20.0975 32.2376 20.2057 32.3399 20.2811 32.4649C20.3566 32.5899 20.3965 32.7328 20.3965 32.8785V42.2831C20.3961 42.5766 20.32 42.8651 20.1754 43.1211C20.0308 43.3772 19.8225 43.5922 19.5704 43.7459C19.3183 43.8994 19.0306 43.9864 18.735 43.9985C18.4394 44.0106 18.1455 43.9475 17.8814 43.8151L10.2891 39.9985C10.1634 39.9352 10.0563 39.8407 9.9783 39.7242C9.9003 39.6076 9.85416 39.4731 9.84418 39.3335C9.83428 39.194 9.86099 39.0543 9.92164 38.9281C9.98237 38.8018 10.075 38.6934 10.1906 38.6132L13.7361 36.221C13.8439 36.1466 13.9319 36.0475 13.9927 35.9321C14.0535 35.8166 14.0853 35.6883 14.0853 35.5581V30.3418C14.0853 30.202 14.122 30.0645 14.1917 29.943C14.2614 29.8214 14.3618 29.7198 14.4829 29.6483C14.6041 29.5768 14.7419 29.5377 14.8829 29.5348C15.0238 29.532 15.1631 29.5655 15.2871 29.6322Z" fill="#1969A7"/>
            <g id="Group 42">
                <path id="Path Copy 32" d="M42.2225 11.7247L29.235 18.1809C29.0394 18.279 28.8724 18.4253 28.7497 18.6058C28.6271 18.7864 28.5531 18.9953 28.5346 19.2125C28.5162 19.4297 28.5541 19.6479 28.6445 19.8463C28.735 20.0449 28.875 20.2169 29.0514 20.3462L30.6685 21.7177C30.9245 21.9086 31.2288 22.025 31.5473 22.0538C31.8659 22.0827 32.1862 22.023 32.4726 21.8813L43.1342 16.7691C43.3013 16.6859 43.4421 16.5584 43.5408 16.4005C43.6396 16.2425 43.6925 16.0605 43.6936 15.8745V12.6193C43.6937 12.447 43.6493 12.2776 43.5646 12.1274C43.48 11.9771 43.3579 11.851 43.2103 11.7612C43.0626 11.6714 42.8942 11.6208 42.7212 11.6144C42.5482 11.608 42.3765 11.646 42.2225 11.7247Z" fill="#1969A7"/>
                <path id="Path Copy 31" d="M42.1609 18.0478L33.722 22.1869C33.3426 22.3732 33.0447 22.6937 32.8852 23.0872L30.6855 28.4697C30.6 28.6784 30.5558 28.902 30.5556 29.1277V34.5831C30.5559 34.861 30.6227 35.1348 30.7501 35.3815C30.8776 35.628 31.0621 35.8401 31.2881 35.9999L34.659 38.3707C34.9126 38.5505 35.21 38.6576 35.5194 38.6806C35.8288 38.7036 36.1386 38.6417 36.4157 38.5014L42.9637 35.2004C43.2499 35.0568 43.4906 34.8357 43.6587 34.5619C43.8269 34.2881 43.9158 33.9725 43.9155 33.6506V19.1516C43.9149 18.9436 43.8619 18.7391 43.7615 18.5573C43.661 18.3754 43.5164 18.2222 43.3411 18.1119C43.1658 18.0017 42.9656 17.9379 42.7592 17.9267C42.5528 17.9155 42.3469 17.9571 42.1609 18.0478Z" fill="#1969A7"/>
                <path id="Path Copy 30" d="M31.2052 22.8751L27.6835 20.0426C27.4345 19.8384 27.1334 19.7086 26.8144 19.6679C26.4955 19.6271 26.1716 19.677 25.8796 19.812L24.5202 20.4397C24.2213 20.5774 23.968 20.7982 23.7905 21.076C23.6128 21.3538 23.5184 21.6769 23.5182 22.0069V28.7775C23.5182 29.0766 23.5956 29.3706 23.7429 29.6306C23.8903 29.8906 24.1024 30.1077 24.3586 30.2607C24.6147 30.4136 24.9062 30.497 25.2041 30.5027C25.5021 30.5084 25.7964 30.4363 26.0583 30.2934L29.4213 28.4629C29.7928 28.2603 30.0768 27.9273 30.219 27.5277L31.5763 24.3102C31.6955 23.9746 31.8692 23.8513 31.7739 23.508C31.6787 23.1648 31.4801 23.1005 31.2052 22.8751Z" fill="#1969A7"/>
                <path id="Path Copy 29" d="M28.6284 29.6322L23.9475 32.1688C23.8181 32.2376 23.7098 32.3399 23.6344 32.4649C23.559 32.5899 23.519 32.7328 23.519 32.8785V42.2831C23.5194 42.5766 23.5955 42.8651 23.7401 43.1211C23.8848 43.3772 24.093 43.5922 24.3452 43.7459C24.5973 43.8994 24.8849 43.9864 25.1806 43.9985C25.4761 44.0106 25.77 43.9475 26.0341 43.8151L33.6264 39.9985C33.7521 39.9352 33.8592 39.8407 33.9372 39.7242C34.0152 39.6076 34.0614 39.4731 34.0713 39.3335C34.0813 39.194 34.0545 39.0543 33.9939 38.9281C33.9332 38.8018 33.8405 38.6934 33.725 38.6132L30.1794 36.221C30.0716 36.1466 29.9836 36.0475 29.9228 35.9321C29.862 35.8166 29.8302 35.6883 29.8302 35.5581V30.3418C29.8302 30.202 29.7935 30.0645 29.7238 29.943C29.6541 29.8214 29.5538 29.7198 29.4326 29.6483C29.3115 29.5768 29.1737 29.5377 29.0326 29.5348C28.8917 29.532 28.7524 29.5655 28.6284 29.6322Z" fill="#1969A7"/>
            </g>
        </g>
        <g id="Group 7">
            <path id="Shape Copy 4" fill-rule="evenodd" clip-rule="evenodd" d="M62.8792 24.0404L66.9882 32.6079H72.1077L67.4336 23.3531C69.7865 22.2888 71.1657 20.1002 71.1657 17.3795C71.1657 13.5028 68.3123 10.7204 63.9505 10.7204H55.6893V32.6079H60.4629V24.0404H62.8792ZM63.8503 20.2961H60.3412V14.9611H63.8503C65.477 14.9611 66.4981 16.008 66.4981 17.6277C66.4981 19.2473 65.468 20.2961 63.8503 20.2961Z" fill="#1969A7"/>
            <path id="Path Copy 4" d="M97.8478 10.7204H104.53L110.271 26.7294L116.012 10.7204H122.694V32.6079H117.947V20.6254L118.321 17.4041H117.947L112.33 32.6009H108.208L102.592 17.4041H102.218L102.592 20.6254V32.6079H97.8446L97.8478 10.7204Z" fill="#1969A7"/>
            <path id="Path Copy 3" d="M125.805 10.7204H139.768V15.2226H130.311V19.85H138.819V23.4783H130.311V28.1056H140V32.6079H125.8L125.805 10.7204Z" fill="#1969A7"/>
            <path id="Shape Copy 3" fill-rule="evenodd" clip-rule="evenodd" d="M76.167 13.6968C76.167 13.6968 78.5162 10.7204 83.7843 10.7204C89.961 10.7204 94.3 15.5027 94.2947 21.6735C94.2947 27.461 90.5066 32.6079 83.8089 32.6079C78.052 32.6079 73.439 28.6007 73.439 22.3601C73.439 16.9338 76.8466 14.4055 76.8466 14.4055L76.167 13.6968ZM89.8708 21.7097C89.8708 18.0349 87.5664 15.2033 83.9997 15.2033C80.973 15.2033 79.409 17.0357 79.409 17.0357L80.1442 17.7978C80.1442 17.7978 78.1157 19.1543 78.1157 22.2635C78.1157 25.6809 80.4476 28.2567 83.9997 28.2567C87.5875 28.2567 89.8708 25.3473 89.8708 21.7097Z" fill="#1969A7"/>
        </g>
    </g>
</svg>
